# xmcd
#
# Track frame offsets: 
#        182
#        11255
#        23520
#        34232
#        46225
#        60680
#        73307
#        84632
#        98120
#        109065
#        121420
#        135987
#        147340
#        157775
#        168152
#        180862
#        200485
#        212802
#        230257
#        261292
#        273370
#        312580
#
# Disc length: 4400 seconds
#
# Revision: 11
# Processed by: cddbd v1.5.2PL0 Copyright (c) Steve Scherf et al.
# Submitted via: ExactAudioCopyFreeDBPlugin 1.0
#
DISCID=28112e16
DTITLE=Various Artist - Atlantic Rhythm and Blues, 1947-1974
DYEAR=1991
DGENRE=Rhythm and Blues
TTITLE0=Aretha Franklin - Respect
TTITLE1=Aretha Franklin - A Natural Woman
TTITLE2=The Bar-Kays - Soul Finger
TTITLE3=Aretha Franklin - Baby I Love You
TTITLE4=Joe Tex - Skinny Legs and All
TTITLE5=Aretha Franklin - Chain of Fools
TTITLE6=Wilson Pickett - I'm in Love
TTITLE7=King Curtis - Memphis Soul Stew
TTITLE8=Aretha Franklin - (Sweet Sweet Baby) Since You've Been Gone
TTITLE9=Otis Redding - (Sittin' On) The Dock of the Bay
TTITLE10=Archie Bell and The Drells - Tighten Up
TTITLE11=Clarence Carter - Slip Away
TTITLE12=Aretha Franklin - Think
TTITLE13=Clarence Carter - Too Weak to Fight
TTITLE14=Tyrone Davis - Can I Change My Mind
TTITLE15=Roberta Flack - The First Time Ever I Saw Your Face
TTITLE16=R.B. Greaves - Take a Letter Maria
TTITLE17=Brook Benton - Rainy Night in Georgia
TTITLE18=Donny Hathaway - The Ghetto
TTITLE19=Tyrone Davis - Turn Back the Hands of Time
TTITLE20=Les McCann and Eddie Harris - Compared to What
TTITLE21=Aretha Franklin - Call Me
EXTD=1967-1969\nCD issued 1991, Atlantic, 7 82305-2
EXTT0=Aretha Franklin
EXTT1=Aretha Franklin
EXTT2=The Bar-Kays
EXTT3=Aretha Franklin
EXTT4=Joe Tex
EXTT5=Aretha Franklin
EXTT6=Wilson Pickett
EXTT7=King Curtis
EXTT8=Aretha Franklin
EXTT9=Otis Redding
EXTT10=Archie Bell and The Drells
EXTT11=Clarence Carter
EXTT12=Aretha Franklin
EXTT13=Clarence Carter
EXTT14=Tyrone Davis
EXTT15=Roberta Flack
EXTT16=R. B. Greaves
EXTT17=Brook Benton
EXTT18=Donny Hathaway
EXTT19=Tyrone Davis
EXTT20=Les McCann and Eddie Harris
EXTT21=Aretha Franklin
PLAYORDER=
